<svg width="118" height="41" viewBox="0 0 118 41" fill="none" xmlns="http://www.w3.org/2000/svg">
<circle cx="20" cy="20.0293" r="20" fill="#282A2E"/>
<path d="M30.5 18.6384V28.7501C30.5 29.2142 30.3156 29.6593 29.9874 29.9875C29.6592 30.3157 29.2141 30.5001 28.75 30.5001H11.25C10.7859 30.5001 10.3408 30.3157 10.0126 29.9875C9.68437 29.6593 9.5 29.2142 9.5 28.7501V18.6384C9.49996 18.3962 9.5502 18.1566 9.64754 17.9348C9.74487 17.713 9.88719 17.5139 10.0655 17.3499L18.8155 9.09431L18.8275 9.08228C19.1497 8.7893 19.5695 8.62695 20.0049 8.62695C20.4404 8.62695 20.8602 8.7893 21.1823 9.08228C21.1861 9.08656 21.1901 9.09058 21.1944 9.09431L29.9444 17.3499C30.1209 17.5147 30.2614 17.7143 30.357 17.936C30.4526 18.1578 30.5013 18.3969 30.5 18.6384Z" fill="#F7F5F4"/>
<path d="M49.517 28.5293V11.0748H56.5057C57.7898 11.0748 58.8608 11.2651 59.7188 11.6458C60.5767 12.0265 61.2216 12.5549 61.6534 13.231C62.0852 13.9015 62.3011 14.6742 62.3011 15.5492C62.3011 16.231 62.1648 16.8304 61.892 17.3475C61.6193 17.8588 61.2443 18.2793 60.767 18.6088C60.2955 18.9327 59.7557 19.1628 59.1477 19.2992V19.4696C59.8125 19.498 60.4347 19.6855 61.0142 20.0321C61.5994 20.3787 62.0739 20.8645 62.4375 21.4895C62.8011 22.1088 62.983 22.8475 62.983 23.7054C62.983 24.6316 62.7528 25.4583 62.2926 26.1855C61.8381 26.9071 61.1648 27.4782 60.2727 27.8986C59.3807 28.3191 58.2813 28.5293 56.9744 28.5293H49.517ZM53.2074 25.5123H56.2159C57.2443 25.5123 57.9943 25.3162 58.4659 24.9242C58.9375 24.5265 59.1733 23.998 59.1733 23.339C59.1733 22.856 59.0568 22.4299 58.8239 22.0605C58.5909 21.6912 58.2585 21.4015 57.8267 21.1912C57.4006 20.981 56.892 20.8759 56.3011 20.8759H53.2074V25.5123ZM53.2074 18.3787H55.9432C56.4489 18.3787 56.8977 18.2907 57.2898 18.1145C57.6875 17.9327 58 17.677 58.2273 17.3475C58.4602 17.0179 58.5767 16.623 58.5767 16.1628C58.5767 15.5321 58.3523 15.0236 57.9034 14.6373C57.4602 14.2509 56.8295 14.0577 56.0114 14.0577H53.2074V18.3787ZM65.3161 28.5293V15.4384H68.8359V17.7225H68.9723C69.2109 16.91 69.6115 16.2963 70.174 15.8816C70.7365 15.4611 71.3842 15.2509 72.1172 15.2509C72.299 15.2509 72.495 15.2623 72.7053 15.285C72.9155 15.3077 73.1001 15.339 73.2592 15.3787V18.6003C73.0888 18.5492 72.853 18.5037 72.5518 18.464C72.2507 18.4242 71.9751 18.4043 71.7251 18.4043C71.1911 18.4043 70.7138 18.5208 70.2933 18.7537C69.8786 18.981 69.549 19.2992 69.3047 19.7083C69.0661 20.1174 68.9467 20.589 68.9467 21.123V28.5293H65.3161ZM78.4943 28.7765C77.6591 28.7765 76.9148 28.6316 76.2614 28.3418C75.608 28.0463 75.0909 27.6117 74.7102 27.0378C74.3352 26.4583 74.1477 25.7367 74.1477 24.873C74.1477 24.1458 74.2813 23.535 74.5483 23.0407C74.8153 22.5463 75.179 22.1486 75.6392 21.8475C76.0994 21.5463 76.6222 21.3191 77.2074 21.1657C77.7983 21.0123 78.4176 20.9043 79.0653 20.8418C79.8267 20.7623 80.4403 20.6884 80.9062 20.6202C81.3722 20.5463 81.7102 20.4384 81.9205 20.2963C82.1307 20.1543 82.2358 19.9441 82.2358 19.6657V19.6145C82.2358 19.0748 82.0653 18.6571 81.7244 18.3617C81.3892 18.0662 80.9119 17.9185 80.2926 17.9185C79.6392 17.9185 79.1193 18.0634 78.733 18.3532C78.3466 18.6373 78.0909 18.9952 77.9659 19.427L74.608 19.1543C74.7784 18.3588 75.1136 17.6713 75.6136 17.0918C76.1136 16.5066 76.7585 16.0577 77.5483 15.7452C78.3438 15.427 79.2642 15.2679 80.3097 15.2679C81.0369 15.2679 81.733 15.3532 82.3977 15.5236C83.0682 15.6941 83.6619 15.9583 84.179 16.3162C84.7017 16.6742 85.1136 17.1344 85.4148 17.6969C85.7159 18.2537 85.8665 18.9213 85.8665 19.6998V28.5293H82.4233V26.714H82.321C82.1108 27.123 81.8295 27.4838 81.4773 27.7963C81.125 28.1032 80.7017 28.3446 80.2074 28.5208C79.7131 28.6912 79.142 28.7765 78.4943 28.7765ZM79.5341 26.2708C80.0682 26.2708 80.5398 26.1657 80.9489 25.9554C81.358 25.7395 81.679 25.4498 81.9119 25.0861C82.1449 24.7225 82.2614 24.3105 82.2614 23.8503V22.4611C82.1477 22.535 81.9915 22.6032 81.7926 22.6657C81.5994 22.7225 81.3807 22.7765 81.1364 22.8276C80.892 22.873 80.6477 22.9157 80.4034 22.9554C80.1591 22.9895 79.9375 23.0208 79.7386 23.0492C79.3125 23.1117 78.9403 23.2111 78.6222 23.3475C78.304 23.4838 78.0568 23.6685 77.8807 23.9015C77.7045 24.1287 77.6165 24.4128 77.6165 24.7537C77.6165 25.248 77.7955 25.6259 78.1534 25.8873C78.517 26.1429 78.9773 26.2708 79.5341 26.2708ZM92.3139 20.9611V28.5293H88.6832V15.4384H92.1435V17.748H92.2969C92.5866 16.9867 93.0724 16.3844 93.7543 15.9412C94.4361 15.4924 95.2628 15.2679 96.2344 15.2679C97.1435 15.2679 97.9361 15.4668 98.6122 15.8645C99.2884 16.2623 99.8139 16.8304 100.189 17.5691C100.564 18.302 100.751 19.177 100.751 20.1941V28.5293H97.1207V20.8418C97.1264 20.0407 96.9219 19.4157 96.5071 18.9668C96.0923 18.5123 95.5213 18.285 94.794 18.285C94.3054 18.285 93.8736 18.3901 93.4986 18.6003C93.1293 18.8105 92.8395 19.1174 92.6293 19.5208C92.4247 19.9185 92.3196 20.3986 92.3139 20.9611ZM108.437 28.7424C107.442 28.7424 106.542 28.4867 105.735 27.9753C104.934 27.4583 104.298 26.6998 103.826 25.6998C103.36 24.6941 103.127 23.4611 103.127 22.0009C103.127 20.5009 103.369 19.2537 103.852 18.2594C104.335 17.2594 104.977 16.5123 105.778 16.0179C106.585 15.5179 107.468 15.2679 108.428 15.2679C109.161 15.2679 109.772 15.3929 110.261 15.6429C110.755 15.8873 111.153 16.1941 111.454 16.5634C111.761 16.927 111.994 17.285 112.153 17.6373H112.263V11.0748H115.886V28.5293H112.306V26.4327H112.153C111.982 26.7963 111.741 27.1571 111.428 27.5151C111.121 27.8674 110.721 28.16 110.227 28.3929C109.738 28.6259 109.141 28.7424 108.437 28.7424ZM109.587 25.8532C110.173 25.8532 110.667 25.6941 111.07 25.3759C111.479 25.052 111.792 24.6003 112.008 24.0208C112.229 23.4412 112.34 22.7623 112.34 21.9838C112.34 21.2054 112.232 20.5293 112.016 19.9554C111.8 19.3816 111.488 18.9384 111.079 18.6259C110.67 18.3134 110.173 18.1571 109.587 18.1571C108.991 18.1571 108.488 18.3191 108.079 18.6429C107.67 18.9668 107.36 19.4157 107.15 19.9895C106.94 20.5634 106.835 21.2282 106.835 21.9838C106.835 22.7452 106.94 23.4185 107.15 24.0037C107.366 24.5833 107.675 25.0378 108.079 25.3674C108.488 25.6912 108.991 25.8532 109.587 25.8532Z" fill="#282A2E"/>
</svg>
